<svg width="126" height="125" viewBox="0 0 126 125" fill="none" xmlns="http://www.w3.org/2000/svg">
<path fill-rule="evenodd" clip-rule="evenodd" d="M18.3437 106.695C30.1373 118.489 45.8314 125 62.5391 125C96.9985 125 125.039 96.9594 125.039 62.5C125.039 45.7924 118.528 30.0983 106.734 18.3047C94.9408 6.51105 79.2467 0 62.5391 0C45.8622 0 30.1373 6.51105 18.3437 18.3047C6.55011 30.0983 0.0390625 45.7924 0.0390625 62.5C0.0390625 79.2076 6.55011 94.9017 18.3437 106.695ZM2.62015 62.4692C2.62015 29.3918 29.4322 2.549 62.5403 2.549C95.6177 2.549 122.46 29.4225 122.46 62.4999C122.46 95.5773 95.6484 122.42 62.5403 122.42C29.4322 122.42 2.62015 95.5465 2.62015 62.4692ZM58.5477 5.83523H53.7872V21.6215H56.9506V10.5957L61.0968 21.6215H64.5366L68.6828 10.5957V21.6215H71.9076V5.83523H67.1472L62.8474 17.076L58.5477 5.83523ZM21.6926 22.6043L13.9838 31.7873L26.0845 41.9532L34.1926 32.2787C36.0354 30.0674 36.3118 27.8868 34.3769 25.9827C33.1177 24.7542 31.1521 24.3856 29.3093 25.522C29.6779 24.6006 29.5243 23.6792 29.3401 23.1571C28.5917 21.8043 28.3019 21.5575 27.7376 21.0768C27.7133 21.0561 27.6885 21.0349 27.6631 21.0133C27.649 21.0012 27.6346 20.9889 27.6201 20.9765C25.501 19.1952 23.2897 20.7001 21.6926 22.6043ZM24.2725 62.4999C24.2725 83.6301 41.4101 100.768 62.5403 100.768C83.6705 100.768 100.808 83.6301 100.808 62.4999C100.808 41.3696 83.6705 24.232 62.5403 24.232C41.4101 24.232 24.2725 41.3696 24.2725 62.4999ZM95.3413 38.6976L98.1975 42.2603L112.632 35.2578L110.206 32.248L100.992 36.6092L106.951 28.194L104.34 24.9691L94.8806 29.0232L101.085 20.9151L98.6582 17.9053L88.7688 30.6202L91.6558 34.1522L101.023 30.3131L101.054 30.3438L95.3413 38.6976ZM62.5381 62.499H26.7273C26.7273 42.7201 42.7592 26.6882 62.5381 26.6882V62.499ZM62.5391 98.3102C82.3179 98.3102 98.3499 82.2783 98.3499 62.4994H62.5391V98.3102ZM31.1199 28.5638C32.0412 29.3316 32.1334 30.5294 31.4884 31.2972L26.6665 37.0712L23.6567 34.522L28.5093 28.7173C29.0621 28.0724 30.2906 27.8574 31.1199 28.5638ZM25.8993 24.9378C25.1315 24.2929 23.903 24.2622 23.3809 24.9071L18.7433 30.4047L21.5995 32.8002L26.1757 27.3641C26.7592 26.6577 26.7593 25.6442 25.8993 24.9378Z" fill="white"/>
</svg>
