<svg width="125" height="125" viewBox="0 0 125 125" fill="none" xmlns="http://www.w3.org/2000/svg">
<path fill-rule="evenodd" clip-rule="evenodd" d="M52.339 5.99902L52.3506 5.53078L52.0024 5.47047L51.1619 5.50678L50.9822 4.97823L52.4946 4.66629L53.4194 4.63062L55.4123 5.06059L57.4416 5.63714L58.5584 5.55348L58.906 5.24153L58.858 4.71363L58.3774 4.08975L58.4254 3.56185L59.4339 1.88086L61.0785 3.3822L62.4469 4.84658L62.8425 5.37448H64.2952L65.9769 5.63908L67.2603 6.21562L68.2694 6.87583L69.1573 7.86029L74.1509 7.76431L74.8222 7.89661L75.5316 8.07625L75.6996 8.3882L75.3993 8.7838L74.1153 9.18005L72.3876 9.75659L71.4148 10.5964L73.1794 11.0407L74.4635 11.7969L75.9279 13.3339L77.6569 13.7418L79.7341 15.2418L81.0552 17.1868L80.7069 17.5467L79.7341 16.9708L78.533 15.6381H77.0803L75.3993 15.2418L74.1509 14.7976L73.0471 14.2211L72.4356 13.9571L72.0393 14.2691L72.5192 14.7133L73.8033 15.5895L74.9551 16.7419L75.4824 17.3658L77.7392 17.4981L78.9273 17.6304L80.5714 18.4709L81.6278 19.4437L81.989 19.8036L81.9411 20.1998L81.4962 20.0675L80.4397 19.3114L79.4202 18.9151L78.0862 18.9988L77.2107 19.0948H76.1899L75.5654 19.0468L75.0855 18.8665L74.7742 18.6505L74.5576 18.9151L75.1704 19.6596L76.3216 20.2835L78.4461 21.3036L79.5032 21.7836L80.7043 22.0482L80.788 22.4924L79.7315 22.8043L78.4954 22.5884L77.343 22.0482L75.7937 21.9638L74.2943 21.34L73.3571 20.8594L72.6969 20.7757L72.7819 21.3036L74.6425 22.9366L76.0103 24.9769L76.4065 25.9854L77.2107 26.6579L78.1822 27.7143L78.4461 28.6502L79.3716 29.4907L79.8152 29.6586L79.5039 30.1509L78.891 29.9706L77.8235 29.3947L76.6341 28.2909L75.6977 27.5827L73.9324 26.5626L72.2034 25.1942H71.9044L71.9881 25.5547L73.3078 26.7908L74.5096 27.5354L75.566 28.2079L76.5388 29.0847L76.7178 29.7929L77.474 30.8973L78.0512 31.3896L79.024 31.5219L79.8638 31.7378L80.4404 32.23L80.0441 32.5783L79.0246 32.7586L78.0881 32.4946H77.3793L76.4558 32.0141L75.8793 31.2099L74.9901 30.898L73.1418 30.3701L72.2047 30.1541L71.8097 30.4181L71.9414 30.8623L72.8292 31.3422L74.2469 33.0226L75.8313 33.7307L77.3793 35.1108L78.2684 36.4792L78.7127 37.0914L79.2056 37.0558L79.3748 37.3197L79.0266 37.5357L78.738 37.6556L78.666 37.668L77.3462 36.8755L76.8533 35.9513L75.5693 35.8073L74.5608 35.2794L73.4933 35.1115L73.7229 35.6757L74.5148 36.2996L74.4311 36.6958L73.6749 36.6122L73.147 36.2159L72.2592 35.952L71.5497 35.808L71.466 36.1199L71.9459 36.7438L73.0504 37.1401L74.3338 37.356L75.3066 37.8483L76.1938 38.6044L77.2146 38.9527L78.4027 39.0007L78.9792 39.2646L78.7626 39.7452L78.0064 40.1051L76.59 40.0571L75.1737 39.4449L74.2968 39L73.4077 38.7361H72.2566L71.5471 39.1323L71.9083 39.3483L72.8798 39.4806L73.9363 39.6129L75.2204 40.2854L76.0135 41.0293L76.7697 41.5215L77.3813 41.7018L77.033 41.9658H76.2768L75.3533 41.7375L74.7768 41.2576L74.0679 41.3899H72.7469L71.4634 41.4735H70.1793L69.6028 41.3899L69.5548 41.7375L70.1793 42.1337L71.632 42.626L73.1444 42.9379L74.1529 43.6818L74.9927 44.6662L75.9285 45.4101L76.9013 45.5424L78.0538 45.3628L79.3748 44.9302L79.7691 44.5223L80.1822 44.4885L80.1343 44.8005L79.6894 45.2324L78.6686 45.8569L77.9254 46.2052L76.592 46.3848L74.7314 46.1209L73.6749 45.593L71.6833 44.8005L69.8214 44.4885L68.8122 43.9963L68.3686 44.3082L68.8122 44.6682L71.0581 45.5443L72.9187 46.5165L74.1192 47.5853L74.5647 48.1975L74.3014 48.5581L73.5919 48.2461L72.0432 47.226L70.9751 46.8777H70.0516L69.9186 47.226L70.5801 47.3583L71.7682 47.8025L72.9693 48.9063L73.5925 49.9271L74.0258 50.5873L74.5173 50.8992L74.8286 50.7669L75.0932 50.8149L74.865 51.2592L73.8565 51.1269L72.8837 50.4543L72.1275 49.8421L70.6625 48.9537L69.2954 48.3291L68.106 48.3771L66.6416 47.6689L65.7162 47.045L65.3556 47.357L65.1766 48.9537L65.8854 51.5225L68.5016 55.808L70.8914 58.773L75.2729 62.4469L78.3229 64.5119L79.2944 65.2693L81.5026 67.082L83.6772 69.1579L84.6856 70.5263L85.4418 71.4615L86.5942 73.0458L87.4341 74.6905L87.7447 75.8313L90.0859 75.6996L92.5224 74.3312L94.42 72.6029L96.2807 70.2624L96.7742 68.763L97.0369 67.4289L97.2061 65.7966V64.2466L96.8099 61.3782L96.149 57.6206L95.1289 54.4869L94.601 52.494L94.0731 50.1891L94.158 47.9802L94.3377 46.3472L94.9492 44.7026L96.0654 42.674L97.2068 41.1253L98.8028 39.7082L100.087 38.6038L100.844 38.1116L101.768 37.6316L101.984 37.7996L101.816 38.1595L100.003 39.7082L98.5388 41.5209L97.4344 43.7777L96.8099 45.8063L96.6782 47.619L96.7262 48.5918L96.8579 48.9997L97.2535 49.036L99.2937 46.6468L100.661 45.3264L101.851 44.3536L102.655 43.0209L103.183 41.7005L103.494 41.3886L103.662 41.8685L103.531 43.3815L102.473 45.5424L100.698 48.1955L99.8203 49.6126L99.4598 51.1256L99.3748 52.7579L99.6874 54.175L100.215 54.4869L100.792 54.3909L101.32 53.2022L101.763 52.494L102.868 51.1612L103.264 50.8973L103.972 49.8408L104.368 49.3966V48.6398L104.859 48.87L105.206 49.3499L105.122 49.8778L104.726 50.9459L103.658 52.6263L102.914 54.2593L102.555 55.9039L102.385 57.2243L102.602 59.3009L102.95 61.2939L103.358 63.2388L103.706 65.9276L103.658 68.1008L103.442 70.5257L102.781 72.038L101.977 73.6224L100.56 75.5304L99.4559 76.5025L98.2191 77.164L97.0686 77.6913L96.2268 77.8709L96.0102 78.2665L96.6224 79.2866L97.3313 80.7043L97.4266 81.4125V82.253L97.162 83.934L97.1147 85.434L97.162 86.4542L97.4629 87.4737L97.5103 87.6903L97.3313 88.0502L96.9357 87.9062L96.3241 86.5378L96.2761 86.5015L95.8312 85.1208L95.6516 83.1279L95.3513 81.6285L94.6431 80.3444L94.0666 79.6355L93.6217 79.4202L93.2605 79.5999L93.3565 80.1271L94.1496 81.2316L94.5446 82.6486V84.6779L94.2333 86.7181L93.885 88.2675L93.0919 89.6845L92.1204 91.2345L91.7124 92.0263L91.0996 92.8668L90.5723 93.5757L90.7033 94.3688L90.8726 94.8131L90.5723 95.221H89.9951L89.6845 94.2852L89.6008 93.313L89.6845 92.4725L90.13 91.1041L90.8732 89.5081L91.6768 87.8265L91.9414 86.0975L92.025 84.8251L91.846 84.0209L91.6294 83.1804L91.4141 82.9644H91.1502L90.9206 83.4444L90.7416 84.4651L90.573 85.9295L90.2124 86.938V88.1397L90.392 88.8479L90.2604 89.1598L89.9958 89.1962L89.6851 88.7519L89.4212 87.0353V84.862L89.5061 83.8419L89.6015 83.1804L89.4562 82.2083L89.3725 81.1888L89.0606 80.4449L88.7123 80.216L88.3167 80.3113L87.9561 80.6596L87.8725 81.7277L87.7395 83.1311L87.2953 84.6448L86.6708 86.0125L86.0106 87.2136L85.2174 88.6183L84.113 89.8667L83.0455 91.1035L81.989 92.2079L80.4397 93.5277L79.2873 94.5121L78.3158 95.1244L77.7866 95.4363L77.295 96.2288L76.6361 98.485V99.5525L76.7204 100.346L77.116 101.102L77.9195 102.111L78.4234 102.975L78.6517 103.503L78.845 104.415L78.891 105.387L79.1076 105.915L78.797 106.31L78.664 106.671L78.3177 107.019L76.8514 107.823L75.3993 108.795L73.492 110.561L72.4712 111.628L71.9913 112.6L71.4148 112.949L70.7066 113.344L70.2137 113.705L70.1301 114.498L69.7338 115.47L68.9776 116.538L68.3661 117.331L67.7895 117.691L67.4283 117.955L67.0813 117.859L66.7687 117.776L66.8524 118.22L67.0333 118.665L66.7207 120.778L66.1442 121.318L65.5326 121.582H65.1364L64.9574 122.027L63.8056 122.555L62.9275 123.082L62.0883 123.166H60.1427L59.6148 122.602L59.5668 121.713L59.8308 120.61L60.275 119.277L61.0318 117.956L62.2686 116.672L63.2758 115.568L64.1636 114.464L64.5598 113.66L65.3043 112.951L66.5534 112.471L67.165 112.111L68.5814 110.561L70.1307 108.882L71.68 106.888L72.4362 105.832L72.9161 105.039L73.0958 104.547V104.151L72.8312 103.575L71.4634 101.894L70.3116 100.08L69.4718 98.3521L68.4037 96.1432L67.5638 94.2826L67.2156 92.8655L66.951 90.4407L67.2156 88.2675L67.7428 86.1902L68.63 84.5942L69.5191 83.1285L70.18 81.9884L70.3953 81.2322L70.4906 79.7315V79.0233L70.7552 78.4468L71.1035 77.511L71.4984 77.079L71.4628 76.6711H70.9219L70.3583 76.9474L70.0821 77.5583L69.9984 78.5311L69.8655 79.7672L69.6858 80.884L68.846 82.3367L68.6773 83.3568L67.9692 84.113L67.4756 84.5922L66.8511 84.6772L65.842 84.281L64.7375 83.4884L64.3296 82.4314L64.246 81.4119L62.4456 78.9747L60.7167 77.5103L58.7121 76.0816L56.5388 74.6049L54.8462 73.7041L52.5893 72.492L49.8039 70.3551L48.3155 69.0353L46.5748 67.1261L45.1338 65.698L44.2337 64.3653L43.7654 63.4768L43.9211 63.1052L44.185 62.4204H40.5234L38.7705 61.8321L37.4021 61.0403V60.2478L35.913 59.3956L32.8403 57.9072L31.5679 57.439L30.3435 56.6945L29.4913 55.95H28.9154L28.1709 56.3702L27.7513 57.4863L28.0153 59.347L28.7474 60.884L29.1794 62.8406L29.7079 64.9542L30.3441 66.4432L31.3526 67.6079L31.3046 68.1845L31.4006 69.0846L31.9408 69.2533L33.4175 69.8888L34.21 70.682L34.6426 71.3175L34.7509 71.6891C34.7509 71.7371 34.7509 72.1087 34.7989 72.1087L35.0628 72.6969V74.7625L34.8469 75.6627L34.4869 76.2989L34.1627 77.0421L33.6348 77.1984L32.9992 77.1504L32.0394 76.5622L30.7183 75.2898L29.8182 73.9693L29.2299 72.481L28.3901 71.2079L27.6456 70.4647L26.8414 69.8285L26.5295 69.0846L26.2052 66.9717L25.7856 65.591L25.6293 64.3666L25.3051 63.0572L24.8368 61.1966L24.4646 59.288L23.7207 56.8508L23.3964 54.9422L23.4561 53.8857L24.0326 52.4453L24.7772 51.1729L25.6773 50.3804L26.5288 49.8525L27.6449 49.7922L29.5536 49.8525L32.7826 50.4887L34.055 50.597L34.9558 50.8013L35.2198 50.5367L34.9558 50.0082L34.1179 49.6366L33.2657 48.9524L32.3053 48.1002L31.4051 47.0437L30.6126 45.8796L29.8687 45.0275L29.1839 44.6552L28.704 44.4989L28.3317 44.6072L27.9595 45.0755L27.8032 45.8193L27.7552 46.6715L27.5866 47.3077L27.3829 48.0509L26.903 48.6871L26.3751 49.1553L25.8952 49.5879L25.5709 49.7916L24.8861 49.8519L24.5145 50.4284L24.0339 50.8603L23.506 51.7125L22.9781 53.3455L22.7622 54.4136V55.3618L22.9301 56.3709L23.2421 57.703L23.5663 58.9754L23.8309 60.0318L24.0346 60.884L23.7226 61.9404L22.9301 63.2129L22.0177 64.3173L21.3821 64.8938L20.6979 65.1105L20.3256 64.8465L19.8451 63.7421L19.9061 62.3613L19.7498 61.5208L20.0144 60.561V58.2322L20.0623 56.8994L20.1103 56.1069L20.4826 55.3144L21.0708 53.9337L21.2868 52.289L21.659 50.9686L22.3432 49.6359L22.7155 48.2072L23.1357 46.7785L23.508 45.8783L23.5676 44.3413L23.9879 43.0566L24.4075 42.2167L24.7797 40.8367L25.104 39.9359L25.5722 38.7718L26.4847 38.1356L27.5412 37.5473L29.0296 37.2354L30.1937 37.4397L31.5141 37.9196L32.7385 38.9281L33.8553 39.8282L34.7554 40.5124L36.4961 41.4249L38.0447 42.1091L39.1012 42.7933L40.0494 43.2259L40.5293 43.3342L41.2731 42.9619L41.801 42.6376L42.3296 41.9528L43.0734 41.1006L44.2375 40.5124L45.6183 39.6719L46.5184 38.9281L47.2629 38.4002L47.8511 37.7036L48.2707 36.3229L49.0632 35.4831L50.3117 34.4266L51.6684 33.0705L52.7365 31.5938L53.9253 30.0938L54.9097 28.5568L55.1977 27.7766L55.6302 26.6482L56.0382 25.4114L56.4461 24.283L56.734 23.3828L56.878 22.6026L56.9383 21.9664L56.6497 21.4742L56.1218 21.2706L54.9091 21.1863L53.9609 21.3542L53.3487 21.2706L52.2203 20.9223L51.3558 20.8386L50.8032 20.5144L50.1307 20.4301L49.4465 20.4657L48.9783 20.3094L48.3661 20.4301L47.6456 20.574L46.5528 21.1506L45.796 21.3309L45.1001 21.3549H44.5475L43.8633 21.2712L43.5391 20.9833L43.5754 20.635L43.7674 20.3107L44.7518 20.0228L46.0606 19.5306L46.4931 19.3023L46.6131 18.9903L46.4931 18.6661L45.9769 18.6421L44.6922 19.1583L43.744 19.4463L42.9035 19.6745L42.3873 19.7109L41.9547 19.4826L41.4625 19.0383V18.2342L41.4262 17.478L41.4625 16.9377L41.8348 16.4695L42.3873 15.5097L42.9638 14.6452L43.1921 14.2373L43.3964 13.6367L43.6604 13.0842L44.1169 12.9642L45.3057 12.9402L46.1702 12.9162L47.1546 12.6763L48.1988 12.2197L49.3512 11.4629L50.8039 10.8027L52.0763 9.90186L53.1204 9.34932L53.8046 8.8934L54.1886 8.71311L54.8248 8.48483L54.9688 8.25719L54.8481 7.9686L53.4914 7.35639L52.5672 7.1281L51.7871 6.88815L50.7669 6.84016L50.2864 6.86415L49.8181 7.06844L49.4102 7.18842L48.9776 7.09243L48.7734 6.74418L48.9536 6.4919L49.5302 6.45558L50.2501 6.2273L51.2105 6.02366L51.8467 6.10732L52.339 5.99902ZM70.047 60.849L68.1014 58.3275L66.4198 55.8546L65.1714 53.9104L64.6921 52.5776L64.4282 51.2929L64.1149 50.4167L63.6233 50.1891L63.1421 50.3207L62.9748 51.1612L63.3237 52.6256L64.1635 54.7508L65.2194 56.4669L66.4198 57.9799L67.7408 59.3003L68.5327 60.0565L70.047 60.849ZM43.5514 15.699L43.0831 16.3469L42.8905 17.0071L42.9748 17.4754L43.2031 17.6193L43.8633 17.4754L44.3555 17.1997L44.7038 16.8508L44.8958 16.203L44.7038 15.891L44.2836 15.5427L43.9353 15.5071L43.5514 15.699ZM56.1562 13.9577H56.6964L57.2009 13.7664L57.2366 13.2619L57.0447 12.686L56.8164 12.1458L56.3605 11.8332L55.7722 11.7249L54.9674 11.7612L54.4635 12.1814L54.2352 12.6497L54.3915 13.0699L54.9317 13.3819L55.5076 13.6938L56.1562 13.9577ZM99.4331 60.9929L99.1212 61.3049L99.1828 61.8691L99.2768 62.8776L99.3858 63.947L99.4571 64.8698L99.4098 65.9269L99.3618 67.1034L99.1452 68.1598L98.8923 69.084L98.4603 69.9848L97.8974 70.9089L97.3202 71.8104L96.708 72.6379L96.1444 73.3818L95.8325 73.946L95.6036 74.4622L95.6509 74.8468L95.9414 74.9785L96.481 74.8468L97.5362 73.8377L98.4603 72.7572L99.0738 71.8921L99.6147 70.8849L99.9727 69.9608L100.287 68.9043L100.514 67.6676L100.538 67.1034V64.8465L100.357 63.7304L100.104 62.5656L99.7937 61.5935L99.6387 61.1012L99.4331 60.9929ZM52.8305 68.2558L53.4434 68.9407L55.4596 70.693L56.5764 71.6891L57.5726 72.5906L58.3767 73.3461L58.533 73.5971L58.6413 73.778L58.3287 73.7547L57.5246 73.2495L56.1678 72.35L54.0673 70.9329L53.2151 70.3557L52.3149 69.6495L51.3305 68.748L50.61 68.1845L49.7455 67.344L49.1812 66.7564L48.833 66.2155L48.7013 65.567L48.7253 64.9671L48.953 64.7382L49.3492 64.7622L49.9737 65.1351L50.6456 65.7836L51.1385 66.3822L51.6664 66.9114L52.1826 67.5476L52.8305 68.2558ZM48.2811 41.0409L48.3051 40.7167L48.521 40.4767L49.2772 40.1648L50.8499 39.6726L52.4226 39.4799H53.3831L54.1756 39.6486L54.9194 40.0208L55.5076 40.5974L55.544 40.921L55.472 41.1493L55.2197 41.1972L54.8358 41.1493L54.2475 40.9806L53.695 40.8133L53.0108 40.7407H52.1586L51.4381 40.729L50.8019 40.7893L50.0937 40.9086L49.5295 41.0649L48.9776 41.1849L48.617 41.2089L48.3654 41.1733L48.2811 41.0409ZM68.449 68.1358L68.2201 68.772L68.1248 69.2753L67.9334 70.1891L67.8718 70.9206L68.0411 71.1255L68.3894 71.1729L68.5684 71.0283L68.652 70.645L68.9186 70.0924L69.1812 69.7922L69.4698 69.5282L69.6495 69.1086L69.6008 68.3998L69.3505 68.0282L69.2052 67.8946H68.8686L68.6183 67.9445L68.449 68.1358ZM68.9426 89.9971H68.7136L68.5327 89.4569L68.5204 88.844L68.652 88.0035L68.9523 86.8517L69.4458 86.1429L69.8901 85.5916L70.2857 85.543L70.3933 85.9029L70.154 86.6721L69.8161 87.6079L69.6495 88.0638L69.3369 88.7727L69.0976 89.6008L69.0262 89.8401L68.9426 89.9971ZM84.4152 79.4086L84.1285 79.7685L84.1758 80.345L84.6791 81.0409L84.753 81.7971L84.8704 82.0137L85.1 82.074L85.3503 81.9294L85.4243 81.5928L85.5429 81.2212L85.5922 80.8249V80.2964L85.5189 79.9008L85.2427 79.5525L85.0034 79.3366L84.7154 79.3126L84.4152 79.4086ZM62.3386 119.421L61.8464 119.912L61.6661 120.273L61.6064 120.586L61.6544 120.837L61.8107 120.957H61.9547L62.2906 120.885L62.6382 120.658L62.8542 120.333L63.0345 119.985L63.1421 119.541L63.1084 119.289L62.9748 119.181L62.7108 119.193L62.3386 119.421ZM65.9515 114.163L65.5423 114.415L65.3393 114.668L65.3153 114.883L65.4347 115.1L65.6396 115.159L65.9165 115.063L66.1429 114.931L66.3257 114.679L66.4334 114.415L66.3958 114.199L66.2518 114.115L65.9515 114.163ZM72.7235 107.427L71.0658 109.097L69.6987 110.573L68.7259 111.653L68.6767 111.954L68.7843 112.133L69.0126 112.146L69.3609 111.917L69.9854 111.353L70.7792 110.633L71.6307 109.745L72.4342 108.965L73.1424 108.136L73.6723 107.356L73.8137 107.007L73.6723 106.828L73.503 106.791L73.0335 107.092L72.7235 107.427ZM76.732 104.992L76.4914 105.243L76.4201 105.447L76.4577 105.651L76.6231 105.748H76.7684L76.985 105.507L77.2243 105.291L77.3313 105.123L77.3215 104.992L77.2003 104.931L76.9376 104.918L76.732 104.992ZM70.9206 95.8552H70.7299L70.6462 95.9635L70.6222 96.3222V96.9234L70.7416 97.5719L70.9465 98.0401L71.3784 98.7483L71.6664 99.1686L71.822 99.2393L71.907 99.2289L71.953 99.1206L71.8454 98.568L71.7377 98.2924L71.7267 98.0881L71.7144 97.5116L71.5827 96.7917L71.3901 96.2515L71.1268 95.9402L70.9206 95.8552ZM33.1068 73.9103L32.7586 73.8377L32.6146 73.874L32.5543 74.0906L32.6269 74.4622L32.8065 74.6302L33.0588 74.6775L33.2631 74.5225L33.2988 74.2826L33.2631 74.0789L33.1068 73.9103ZM26.0482 58.8684L25.9159 59.8048L25.9399 60.753L26.0839 61.5695L26.3602 62.434L26.6364 62.9859L26.8284 63.4061L26.9484 63.6337L27.104 63.766H27.1883L27.2603 63.6577L27.3206 63.3341L27.1527 62.218L27.0327 61.5332L26.7564 60.753L26.5281 60.0208L26.5165 59.4443L26.3842 58.88L26.2519 58.7601H26.1202L26.0482 58.8684ZM36.0842 57.7036L36.1439 57.5116L36.0959 57.2717L35.8079 57.0071L35.256 56.7554L34.4875 56.4195L33.8273 56.0952L33.1068 55.915L32.6866 55.7593L32.3026 55.771L32.5906 55.9869L33.4311 56.4908L34.1756 57.0434L34.9318 57.5116L35.256 57.6556L35.7236 57.7276L36.0842 57.7036ZM25.556 51.7131L25.1954 52.3377L25.1837 52.7696L25.3277 52.8896L25.5437 52.8059L25.7596 52.5056L26.0119 51.9174V51.5575L25.8439 51.4492L25.6636 51.5335L25.556 51.7131ZM59.9254 25.7227L59.5052 25.7947L58.9533 26.3232L57.8845 28.0276L56.7561 30.2125L56.1205 31.4732L55.4117 32.9376L54.5478 34.2703L54.3319 34.7749L54.3675 34.9545L54.5958 34.9668L55.304 34.6906L56.3241 33.6224L57.6685 31.7372L58.509 30.1768L59.2652 28.9277L59.8294 27.4517L60.0817 26.5269L60.1057 26.0106L59.9254 25.7227ZM39.9494 45.9386L40.1894 46.0353L40.262 46.3232L40.0817 47.3557L39.5772 48.7721L39.1329 50.1288L38.3528 51.1009L37.9565 51.4012L37.5363 51.5575L37.2963 51.3889L37.2723 51.0769L37.6089 50.717L37.9565 50.1405L38.4008 49.1683L38.6653 48.2442L38.9053 47.3317L39.3729 46.4555L39.6855 46.0113L39.9494 45.9386ZM25.6163 42.9379L25.1118 43.8141L24.8835 45.0145L24.8232 45.6513V46.1189L24.9315 46.3589L25.2434 46.2752L25.8199 45.3867L26.1436 44.3303L26.3958 43.3938L26.4082 42.7336L26.2642 42.5177L25.8803 42.626L25.6163 42.9379ZM31.9784 44.7505L32.0147 45.0145L32.158 45.1948L32.4823 45.519L32.8312 45.807L33.2385 46.0353L33.5271 46.2149L33.647 46.2032L33.7073 46.0949L33.695 45.8913L33.5387 45.663L33.2871 45.3627L32.8669 45.1105L32.6023 44.8705L32.3746 44.6669L32.1703 44.6306L32.0504 44.6182L31.9784 44.7505ZM28.3888 39.1803L27.7889 39.2523L27.5003 39.4566L27.4043 39.7802L27.4886 40.0208L27.8245 40.1525L28.3764 40.0928L28.953 39.8762L29.121 39.6006L29.1093 39.3963L28.9173 39.2166L28.7007 39.1563L28.3888 39.1803ZM58.3651 44.6422L58.7613 44.7505L58.8813 44.9665L58.9293 45.4464L58.9889 45.951L58.8696 46.3109L58.6173 46.4555L58.0051 46.4672L57.5972 46.3712L57.3683 46.0709L57.177 45.831V45.4464L57.4766 45.0625L57.9331 44.7025L58.3651 44.6422ZM47.9685 13.6698L48.521 13.2016L49.5418 12.71L50.562 12.2534L51.5341 11.7968L51.9783 11.5809L52.3149 11.5329L52.5906 11.5932L52.8065 11.9415L52.6625 12.1931L52.3869 12.2657L52.0503 12.3494L51.6781 12.6613L50.8499 13.1659L49.7098 13.4778L49.0016 13.6581L48.3168 13.7061L47.9685 13.6698ZM45.9282 15.7107L45.7479 15.9987L45.7239 16.2146L45.8802 16.3949L46.0722 16.4909L46.3122 16.4792L46.4321 16.4189L46.5164 16.1433L46.4924 15.8307L46.4321 15.6511L46.2642 15.6147H46.0722L45.9282 15.7107ZM48.2811 17.8113L48.1131 17.8236L47.9808 17.9676L47.9568 18.2076L48.0288 18.4002L48.1611 18.4715H48.3894L48.569 18.3878L48.6053 18.2076L48.545 17.9916L48.4607 17.8599L48.2811 17.8113ZM55.2917 18.8561L56.4921 18.0039L57.2243 17.5474L57.6685 17.2717H57.8248L57.8488 17.5953L57.5486 17.8353L57.4046 18.3282L57.0323 18.9041L56.3605 19.2277L55.6763 19.3846H55.0634L54.9557 19.1803L55.1114 18.9637L55.2917 18.8561ZM59.3372 19.2763L59.7335 18.7718L60.19 18.3399L60.5979 18.0642L60.8982 18.0396L61.1018 18.1719V18.5441L60.9942 18.9521L60.5376 19.3846L59.9974 19.7206L59.4455 19.8645L59.1809 19.7802L59.1452 19.5643L59.3372 19.2763ZM59.4092 21.3886L59.5655 21.113L59.9377 20.945L60.5856 20.6324L61.3301 20.1765L61.6784 19.9249L62.2063 19.6719L62.5429 19.7562V20.1168L62.4106 20.4411L61.9423 20.993L61.2945 21.3049L60.6459 21.5689L59.9734 21.5812H59.5538L59.4092 21.3886ZM58.1128 9.82856L57.7288 9.96021L57.6445 10.2248L57.8008 10.5128L58.2211 10.4888L58.5693 10.3565L58.821 10.0685L58.7133 9.82856L58.3767 9.70859L58.1128 9.82856ZM64.8834 7.63135L64.6681 7.47505L64.8238 7.18775L65.4243 7.12744L65.7486 7.2351L66.0015 7.3674L66.0119 7.58336L65.7965 7.67934L65.4606 7.70334L65.1363 7.67934L64.8834 7.63135ZM65.8666 8.99974L66.2168 8.98807L66.4814 9.04838L66.6124 9.13204L66.565 9.26434L66.3724 9.49263L66.1091 9.51597L65.7965 9.46863L65.6163 9.38432L65.4846 9.22803L65.6396 9.09573L65.8666 8.99974ZM65.7965 15.1705L66.4334 14.9065L66.9846 14.6186L67.5618 14.2943L68.0035 14.138L68.27 14.066L68.5327 13.6698L68.3414 13.4895L67.9698 13.5135L67.5242 13.6101L67.032 13.8021L66.6837 13.8261L66.6364 13.5621L66.6837 13.0576L66.4814 12.8533H66.1908L66.0015 13.0933L65.8186 13.3339L65.5319 13.6458L65.327 14.162V14.6186L65.4243 14.8702L65.4009 15.1342L65.5799 15.1945L65.7965 15.1705ZM65.5559 39.8885L65.8666 39.8645L66.1331 40.0805L66.1429 40.2608L66.0592 40.3691L65.8186 40.4404L65.5086 40.4164L65.303 40.2128L65.353 40.0331L65.5559 39.8885ZM66.0592 39.1926H66.4198L66.6604 38.928L66.6364 38.7361L66.3958 38.5798H66.1429L65.9515 38.6401L65.8666 38.8197V39.0843L66.0592 39.1926ZM66.4574 36.9234L66.72 36.8755H66.973L67.1286 37.0071L67.1636 37.2114L67.0819 37.38L66.8394 37.4993L66.589 37.5357L66.3257 37.4753L66.2408 37.2957V37.0797L66.4574 36.9234ZM66.7317 35.939L67.0923 35.9513L67.4166 35.8547L67.5476 35.651L67.4529 35.3988L67.1896 35.2671L66.8757 35.3144L66.589 35.4467L66.5287 35.6627L66.5411 35.8067L66.7317 35.939ZM67.4529 33.3941L67.8245 33.2858H68.1124L68.2441 33.4415L68.1961 33.7178L68.0171 33.9577L67.8485 34.1743L67.5138 34.2463H67.1773L66.8893 34.1023L66.8653 33.8741L67.0683 33.6581L67.2233 33.4778L67.4529 33.3941ZM67.8245 31.4972L68.1961 31.4492L68.5327 31.5212L68.6767 31.7255V31.9291L68.5204 32.1814L68.2441 32.2294L67.9561 32.302L67.5956 32.2897L67.4399 32.1094L67.4639 31.8455L67.5852 31.6652L67.8245 31.4972ZM68.1624 30.861H68.5204L68.8096 30.765L69.1812 30.6087L69.2292 30.2968L69.0976 30.0445L68.7843 29.9368L68.4607 29.9485L68.2324 30.0445L68.0281 30.1528L67.7882 30.3688L67.7408 30.597L67.8381 30.7767L68.0171 30.837L68.1624 30.861ZM21.5701 61.3412L21.8827 61.3775L21.9664 61.6895L21.7504 61.9534L21.3898 61.8691L21.2102 61.5208L21.5701 61.3412ZM67.9094 28.6281L68.4853 28.3278L68.7597 28.2675L69.0976 28.3038L69.2292 28.4238V28.5561L69.0976 28.7721L68.8686 28.964L68.5327 29.0847L68.1364 29.1197L67.8122 29.0724L67.7292 28.8797L67.7772 28.7241L67.9094 28.6281ZM68.4257 27.6676L68.8446 27.4873L69.0126 27.2954L69.0976 27.1034V26.9231L69.0262 26.8155L68.8446 26.8032L68.5943 26.8271L68.3414 26.8875L68.1248 27.0191L68.0171 27.1514L67.9795 27.3797L68.0281 27.5833L68.2201 27.6436L68.4257 27.6676ZM68.5204 26.0106L68.8809 25.879L69.1455 25.6987L69.2052 25.5431L69.2428 25.2791L69.1812 25.1105L69.0126 25.0625L68.7597 25.0748L68.4607 25.1345L68.2564 25.2791L68.1124 25.4224L68.0884 25.6624L68.1248 25.855L68.318 25.9627L68.5204 26.0106ZM68.5204 21.7252L68.8213 21.7129L69.0009 21.7732L69.0502 21.9288L68.9523 22.0851L68.7973 22.2531L68.5444 22.3134H68.2804L68.1124 22.1577V21.9775L68.27 21.8212L68.5204 21.7252ZM68.5444 24.3063L68.9186 24.126L69.2052 23.8737L69.2292 23.5021L69.2052 23.2739L69.0126 23.1656L68.7973 23.1059L68.6183 23.1176L68.5204 23.2382L68.473 23.4055L68.4257 23.6221L68.318 23.6941H68.1124L68.0534 23.8141L68.0774 24.03L68.2324 24.2227L68.3894 24.2817L68.5444 24.3063ZM68.5943 20.4288L68.857 20.2485L69.1339 20.2608L69.3005 20.4644L69.2655 20.6687L69.1339 20.8484L68.9186 20.9327L68.7136 20.9813L68.5327 21.0053L68.294 20.9813L68.2324 20.8367L68.294 20.6447L68.4367 20.5131L68.5943 20.4288ZM68.6423 19.4683L68.857 19.3846L69.0839 19.1803L69.0976 18.9877L69.0742 18.7841L68.9289 18.6998L68.702 18.7361L68.5567 18.8204L68.4017 18.9877L68.3894 19.192V19.3846L68.497 19.4443L68.6423 19.4683ZM68.1248 17.5474L68.27 17.4754L68.4607 17.4637L68.6183 17.5597L68.652 17.7036L68.5943 17.9196L68.4367 18.0396L68.294 18.1239L68.1014 18.1479L67.9458 18.0519L67.9094 17.8833L67.9795 17.74L68.1248 17.5474Z" fill="black"/>
<path fill-rule="evenodd" clip-rule="evenodd" d="M56.2397 77.6446L56.4563 77.1154L56.9486 76.7911L57.5128 76.6958L58.1847 76.8994L58.8572 77.2231L60.1296 78.1719L61.2587 79.0253L62.1465 79.8768L62.8541 80.7887L63.5156 81.8574L63.8645 82.9496L64.0059 83.9703L64.7523 84.4989L65.8088 85.2791L66.336 85.6993L66.589 86.5145L66.3723 87.4756L66.2044 89.3843V91.0049L66.4074 92.673L66.8756 94.6185L67.5138 96.3469L68.3179 98.0039L68.9185 99.1446L69.0598 100.057L68.5683 101.185L68.1124 102.11L67.2608 102.326L65.6635 102.254L65.0623 101.822L63.5156 101.114L61.762 100.512L59.9856 99.9851L57.5485 99.4559L56.0601 99.2393L53.8752 98.965L53.2033 99.1446L52.6385 98.965L51.534 98.8923L50.6579 98.9287L50.2979 98.8204L50.0936 98.4008L49.6617 98.1848L48.6409 98.5091L47.4405 98.784L46.0241 98.9287L44.4391 98.8923L43.3347 98.5331L42.3145 97.9682L41.426 97.3313L40.8618 97.092L39.913 95.7826L39.4091 94.9674L39.3728 94.4746L39.5531 94.2223L40.0816 94.0777L40.8262 93.7664L41.9183 93.6944H43.0227L44.2232 93.8033L45.8082 93.8384L46.8043 93.9103L47.7168 94.2223L49.3135 94.4746H49.986L50.4776 94.2586L51.4017 94.2223L52.2065 94.3669L52.9147 94.6789L53.9829 95.1471L56.0964 95.747L57.8371 96.0589L59.8177 96.3118L62.2185 96.4552L63.5876 96.3832L64.0435 96.2035L64.1511 95.7113L64.1148 95.1108L63.299 94.0186L62.3262 92.673L61.0901 90.5853L60.0576 88.7124L59.3851 87.44L58.437 85.2791L57.7288 83.5864L56.8766 80.753L56.3844 78.6044L56.2397 77.6446ZM43.491 95.0504L43.0591 95.1341L42.6869 95.2547L42.5786 95.411L42.5669 95.627L42.7589 95.8669L42.8905 95.9752L43.1791 96.0589L43.5034 96.0478L43.659 95.9992L43.851 95.7709L43.9593 95.5187L44.0073 95.315L43.971 95.1341L43.8153 95.0387L43.491 95.0504ZM55.7839 96.4194L54.7275 96.0829L54.5712 96.1432L54.5355 96.3955L54.6555 96.6231L55.4596 96.8877L56.5881 97.236L58.0168 97.5952L58.6413 97.6439L59.2892 97.6796L59.9137 97.7878L60.6219 97.9078L61.0299 97.8845L61.1622 97.7159V97.4876L61.0545 97.3436L60.6822 97.2476L60.022 97.1037L59.2055 97.044L58.3411 96.9117L57.3443 96.804L56.7444 96.7197L56.2521 96.6114L55.7839 96.4194ZM65.4723 96.7677L65.148 97.0077L65.0864 97.236L65.148 97.4396L65.3393 97.5239L65.6876 97.4396L65.9275 97.2476L66.0592 97.0077V96.8157L65.9755 96.7074H65.7109L65.4723 96.7677Z" fill="black"/>
<path d="M57.7172 4.97812L57.6206 3.95798L56.1679 2.19333L55.7236 2.06104L55.4117 2.50528L55.4597 3.03383L54.9674 3.47742L54.9458 3.75342L54.855 3.71472L54.8194 3.79838L54.9383 3.8491L54.9194 4.09028L55.496 4.40222L56.3001 4.97812H57.7172Z" fill="black"/>
<path fill-rule="evenodd" clip-rule="evenodd" d="M52.339 5.99902L52.3506 5.53078L52.0024 5.47047L51.1619 5.50678L50.9822 4.97823L52.4946 4.66629L53.4194 4.63062L55.4123 5.06059L57.4416 5.63714L58.5584 5.55348L58.906 5.24153L58.858 4.71363L58.3774 4.08975L58.4254 3.56185L59.4339 1.88086L61.0785 3.3822L62.4469 4.84658L62.8425 5.37448H64.2952L65.9769 5.63908L67.2603 6.21562L68.2694 6.87583L69.1573 7.86029L74.1509 7.76431L74.8222 7.89661L75.5316 8.07625L75.6996 8.3882L75.3993 8.7838L74.1153 9.18005L72.3876 9.75659L71.4148 10.5964L73.1794 11.0407L74.4635 11.7969L75.9279 13.3339L77.6569 13.7418L79.7341 15.2418L81.0552 17.1868L80.7069 17.5467L79.7341 16.9708L78.533 15.6381H77.0803L75.3993 15.2418L74.1509 14.7976L73.0471 14.2211L72.4356 13.9571L72.0393 14.2691L72.5192 14.7133L73.8033 15.5895L74.9551 16.7419L75.4824 17.3658L77.7392 17.4981L78.9273 17.6304L80.5714 18.4709L81.6278 19.4437L81.989 19.8036L81.9411 20.1998L81.4962 20.0675L80.4397 19.3114L79.4202 18.9151L78.0862 18.9988L77.2107 19.0948H76.1899L75.5654 19.0468L75.0855 18.8665L74.7742 18.6505L74.5576 18.9151L75.1704 19.6596L76.3216 20.2835L78.4461 21.3036L79.5032 21.7836L80.7043 22.0482L80.788 22.4924L79.7315 22.8043L78.4954 22.5884L77.343 22.0482L75.7937 21.9638L74.2943 21.34L73.3571 20.8594L72.6969 20.7757L72.7819 21.3036L74.6425 22.9366L76.0103 24.9769L76.4065 25.9854L77.2107 26.6579L78.1822 27.7143L78.4461 28.6502L79.3716 29.4907L79.8152 29.6586L79.5039 30.1509L78.891 29.9706L77.8235 29.3947L76.6341 28.2909L75.6977 27.5827L73.9324 26.5626L72.2034 25.1942H71.9044L71.9881 25.5547L73.3078 26.7908L74.5096 27.5354L75.566 28.2079L76.5388 29.0847L76.7178 29.7929L77.474 30.8973L78.0512 31.3896L79.024 31.5219L79.8638 31.7378L80.4404 32.23L80.0441 32.5783L79.0246 32.7586L78.0881 32.4946H77.3793L76.4558 32.0141L75.8793 31.2099L74.9901 30.898L73.1418 30.3701L72.2047 30.1541L71.8097 30.4181L71.9414 30.8623L72.8292 31.3422L74.2469 33.0226L75.8313 33.7307L77.3793 35.1108L78.2684 36.4792L78.7127 37.0914L79.2056 37.0558L79.3748 37.3197L79.0266 37.5357L78.738 37.6556L78.666 37.668L77.3462 36.8755L76.8533 35.9513L75.5693 35.8073L74.5608 35.2794L73.4933 35.1115L73.7229 35.6757L74.5148 36.2996L74.4311 36.6958L73.6749 36.6122L73.147 36.2159L72.2592 35.952L71.5497 35.808L71.466 36.1199L71.9459 36.7438L73.0504 37.1401L74.3338 37.356L75.3066 37.8483L76.1938 38.6044L77.2146 38.9527L78.4027 39.0007L78.9792 39.2646L78.7626 39.7452L78.0064 40.1051L76.59 40.0571L75.1737 39.4449L74.2968 39L73.4077 38.7361H72.2566L71.5471 39.1323L71.9083 39.3483L72.8798 39.4806L73.9363 39.6129L75.2204 40.2854L76.0135 41.0293L76.7697 41.5215L77.3813 41.7018L77.033 41.9658H76.2768L75.3533 41.7375L74.7768 41.2576L74.0679 41.3899H72.7469L71.4634 41.4735H70.1793L69.6028 41.3899L69.5548 41.7375L70.1793 42.1337L71.632 42.626L73.1444 42.9379L74.1529 43.6818L74.9927 44.6662L75.9285 45.4101L76.9013 45.5424L78.0538 45.3628L79.3748 44.9302L79.7691 44.5223L80.1822 44.4885L80.1343 44.8005L79.6894 45.2324L78.6686 45.8569L77.9254 46.2052L76.592 46.3848L74.7314 46.1209L73.6749 45.593L71.6833 44.8005L69.8214 44.4885L68.8122 43.9963L68.3686 44.3082L68.8122 44.6682L71.0581 45.5443L72.9187 46.5165L74.1192 47.5853L74.5647 48.1975L74.3014 48.5581L73.5919 48.2461L72.0432 47.226L70.9751 46.8777H70.0516L69.9186 47.226L70.5801 47.3583L71.7682 47.8025L72.9693 48.9063L73.5925 49.9271L74.0258 50.5873L74.5173 50.8992L74.8286 50.7669L75.0932 50.8149L74.865 51.2592L73.8565 51.1269L72.8837 50.4543L72.1275 49.8421L70.6625 48.9537L69.2954 48.3291L68.106 48.3771L66.6416 47.6689L65.7162 47.045L65.3556 47.357L65.1766 48.9537L65.8854 51.5225L68.5016 55.808L70.8914 58.773L75.2729 62.4469L78.3229 64.5119L79.2944 65.2693L81.5026 67.082L83.6772 69.1579L84.6856 70.5263L85.4418 71.4615L86.5942 73.0458L87.4341 74.6905L87.7447 75.8313L90.0859 75.6996L92.5224 74.3312L94.42 72.6029L96.2807 70.2624L96.7742 68.763L97.0369 67.4289L97.2061 65.7966V64.2466L96.8099 61.3782L96.149 57.6206L95.1289 54.4869L94.601 52.494L94.0731 50.1891L94.158 47.9802L94.3377 46.3472L94.9492 44.7026L96.0654 42.674L97.2068 41.1253L98.8028 39.7082L100.087 38.6038L100.844 38.1116L101.768 37.6316L101.984 37.7996L101.816 38.1595L100.003 39.7082L98.5388 41.5209L97.4344 43.7777L96.8099 45.8063L96.6782 47.619L96.7262 48.5918L96.8579 48.9997L97.2535 49.036L99.2937 46.6468L100.661 45.3264L101.851 44.3536L102.655 43.0209L103.183 41.7005L103.494 41.3886L103.662 41.8685L103.531 43.3815L102.473 45.5424L100.698 48.1955L99.8203 49.6126L99.4598 51.1256L99.3748 52.7579L99.6874 54.175L100.215 54.4869L100.792 54.3909L101.32 53.2022L101.763 52.494L102.868 51.1612L103.264 50.8973L103.972 49.8408L104.368 49.3966V48.6398L104.859 48.87L105.206 49.3499L105.122 49.8778L104.726 50.9459L103.658 52.6263L102.914 54.2593L102.555 55.9039L102.385 57.2243L102.602 59.3009L102.95 61.2939L103.358 63.2388L103.706 65.9276L103.658 68.1008L103.442 70.5257L102.781 72.038L101.977 73.6224L100.56 75.5304L99.4559 76.5025L98.2191 77.164L97.0686 77.6913L96.2268 77.8709L96.0102 78.2665L96.6224 79.2866L97.3313 80.7043L97.4266 81.4125V82.253L97.162 83.934L97.1147 85.434L97.162 86.4542L97.4629 87.4737L97.5103 87.6903L97.3313 88.0502L96.9357 87.9062L96.3241 86.5378L96.2761 86.5015L95.8312 85.1208L95.6516 83.1279L95.3513 81.6285L94.6431 80.3444L94.0666 79.6355L93.6217 79.4202L93.2605 79.5999L93.3565 80.1271L94.1496 81.2316L94.5446 82.6486V84.6779L94.2333 86.7181L93.885 88.2675L93.0919 89.6845L92.1204 91.2345L91.7124 92.0263L91.0996 92.8668L90.5723 93.5757L90.7033 94.3688L90.8726 94.8131L90.5723 95.221H89.9951L89.6845 94.2852L89.6008 93.313L89.6845 92.4725L90.13 91.1041L90.8732 89.5081L91.6768 87.8265L91.9414 86.0975L92.025 84.8251L91.846 84.0209L91.6294 83.1804L91.4141 82.9644H91.1502L90.9206 83.4444L90.7416 84.4651L90.573 85.9295L90.2124 86.938V88.1397L90.392 88.8479L90.2604 89.1598L89.9958 89.1962L89.6851 88.7519L89.4212 87.0353V84.862L89.5061 83.8419L89.6015 83.1804L89.4562 82.2083L89.3725 81.1888L89.0606 80.4449L88.7123 80.216L88.3167 80.3113L87.9561 80.6596L87.8725 81.7277L87.7395 83.1311L87.2953 84.6448L86.6708 86.0125L86.0106 87.2136L85.2174 88.6183L84.113 89.8667L83.0455 91.1035L81.989 92.2079L80.4397 93.5277L79.2873 94.5121L78.3158 95.1244L77.7866 95.4363L77.295 96.2288L76.6361 98.485V99.5525L76.7204 100.346L77.116 101.102L77.9195 102.111L78.4234 102.975L78.6517 103.503L78.845 104.415L78.891 105.387L79.1076 105.915L78.797 106.31L78.664 106.671L78.3177 107.019L76.8514 107.823L75.3993 108.795L73.492 110.561L72.4712 111.628L71.9913 112.6L71.4148 112.949L70.7066 113.344L70.2137 113.705L70.1301 114.498L69.7338 115.47L68.9776 116.538L68.3661 117.331L67.7895 117.691L67.4283 117.955L67.0813 117.859L66.7687 117.776L66.8524 118.22L67.0333 118.665L66.7207 120.778L66.1442 121.318L65.5326 121.582H65.1364L64.9574 122.027L63.8056 122.555L62.9275 123.082L62.0883 123.166H60.1427L59.6148 122.602L59.5668 121.713L59.8308 120.61L60.275 119.277L61.0318 117.956L62.2686 116.672L63.2758 115.568L64.1636 114.464L64.5598 113.66L65.3043 112.951L66.5534 112.471L67.165 112.111L68.5814 110.561L70.1307 108.882L71.68 106.888L72.4362 105.832L72.9161 105.039L73.0958 104.547V104.151L72.8312 103.575L71.4634 101.894L70.3116 100.08L69.4718 98.3521L68.4037 96.1432L67.5638 94.2826L67.2156 92.8655L66.951 90.4407L67.2156 88.2675L67.7428 86.1902L68.63 84.5942L69.5191 83.1285L70.18 81.9884L70.3953 81.2322L70.4906 79.7315V79.0233L70.7552 78.4468L71.1035 77.511L71.4984 77.079L71.4628 76.6711H70.9219L70.3583 76.9474L70.0821 77.5583L69.9984 78.5311L69.8655 79.7672L69.6858 80.884L68.846 82.3367L68.6773 83.3568L67.9692 84.113L67.4756 84.5922L66.8511 84.6772L65.842 84.281L64.7375 83.4884L64.3296 82.4314L64.246 81.4119L62.4456 78.9747L60.7167 77.5103L58.7121 76.0816L56.5388 74.6049L54.8462 73.7041L52.5893 72.492L49.8039 70.3551L48.3155 69.0353L46.5748 67.1261L45.1338 65.698L44.2337 64.3653L43.7654 63.4768L43.9211 63.1052L44.185 62.4204H40.5234L38.7705 61.8321L37.4021 61.0403V60.2478L35.913 59.3956L32.8403 57.9072L31.5679 57.439L30.3435 56.6945L29.4913 55.95H28.9154L28.1709 56.3702L27.7513 57.4863L28.0153 59.347L28.7474 60.884L29.1794 62.8406L29.7079 64.9542L30.3441 66.4432L31.3526 67.6079L31.3046 68.1845L31.4006 69.0846L31.9408 69.2533L33.4175 69.8888L34.21 70.682L34.6426 71.3175L34.7509 71.6891C34.7509 71.7371 34.7509 72.1087 34.7989 72.1087L35.0628 72.6969V74.7625L34.8469 75.6627L34.4869 76.2989L34.1627 77.0421L33.6348 77.1984L32.9992 77.1504L32.0394 76.5622L30.7183 75.2898L29.8182 73.9693L29.2299 72.481L28.3901 71.2079L27.6456 70.4647L26.8414 69.8285L26.5295 69.0846L26.2052 66.9717L25.7856 65.591L25.6293 64.3666L25.3051 63.0572L24.8368 61.1966L24.4646 59.288L23.7207 56.8508L23.3964 54.9422L23.4561 53.8857L24.0326 52.4453L24.7772 51.1729L25.6773 50.3804L26.5288 49.8525L27.6449 49.7922L29.5536 49.8525L32.7826 50.4887L34.055 50.597L34.9558 50.8013L35.2198 50.5367L34.9558 50.0082L34.1179 49.6366L33.2657 48.9524L32.3053 48.1002L31.4051 47.0437L30.6126 45.8796L29.8687 45.0275L29.1839 44.6552L28.704 44.4989L28.3317 44.6072L27.9595 45.0755L27.8032 45.8193L27.7552 46.6715L27.5866 47.3077L27.3829 48.0509L26.903 48.6871L26.3751 49.1553L25.8952 49.5879L25.5709 49.7916L24.8861 49.8519L24.5145 50.4284L24.0339 50.8603L23.506 51.7125L22.9781 53.3455L22.7622 54.4136V55.3618L22.9301 56.3709L23.2421 57.703L23.5663 58.9754L23.8309 60.0318L24.0346 60.884L23.7226 61.9404L22.9301 63.2129L22.0177 64.3173L21.3821 64.8938L20.6979 65.1105L20.3256 64.8465L19.8451 63.7421L19.9061 62.3613L19.7498 61.5208L20.0144 60.561V58.2322L20.0623 56.8994L20.1103 56.1069L20.4826 55.3144L21.0708 53.9337L21.2868 52.289L21.659 50.9686L22.3432 49.6359L22.7155 48.2072L23.1357 46.7785L23.508 45.8783L23.5676 44.3413L23.9879 43.0566L24.4075 42.2167L24.7797 40.8367L25.104 39.9359L25.5722 38.7718L26.4847 38.1356L27.5412 37.5473L29.0296 37.2354L30.1937 37.4397L31.5141 37.9196L32.7385 38.9281L33.8553 39.8282L34.7554 40.5124L36.4961 41.4249L38.0447 42.1091L39.1012 42.7933L40.0494 43.2259L40.5293 43.3342L41.2731 42.9619L41.801 42.6376L42.3296 41.9528L43.0734 41.1006L44.2375 40.5124L45.6183 39.6719L46.5184 38.9281L47.2629 38.4002L47.8511 37.7036L48.2707 36.3229L49.0632 35.4831L50.3117 34.4266L51.6684 33.0705L52.7365 31.5938L53.9253 30.0938L54.9097 28.5568L55.1977 27.7766L55.6302 26.6482L56.0382 25.4114L56.4461 24.283L56.734 23.3828L56.878 22.6026L56.9383 21.9664L56.6497 21.4742L56.1218 21.2706L54.9091 21.1863L53.9609 21.3542L53.3487 21.2706L52.2203 20.9223L51.3558 20.8386L50.8032 20.5144L50.1307 20.4301L49.4465 20.4657L48.9783 20.3094L48.3661 20.4301L47.6456 20.574L46.5528 21.1506L45.796 21.3309L45.1001 21.3549H44.5475L43.8633 21.2712L43.5391 20.9833L43.5754 20.635L43.7674 20.3107L44.7518 20.0228L46.0606 19.5306L46.4931 19.3023L46.6131 18.9903L46.4931 18.6661L45.9769 18.6421L44.6922 19.1583L43.744 19.4463L42.9035 19.6745L42.3873 19.7109L41.9547 19.4826L41.4625 19.0383V18.2342L41.4262 17.478L41.4625 16.9377L41.8348 16.4695L42.3873 15.5097L42.9638 14.6452L43.1921 14.2373L43.3964 13.6367L43.6604 13.0842L44.1169 12.9642L45.3057 12.9402L46.1702 12.9162L47.1546 12.6763L48.1988 12.2197L49.3512 11.4629L50.8039 10.8027L52.0763 9.90186L53.1204 9.34932L53.8046 8.8934L54.1886 8.71311L54.8248 8.48483L54.9688 8.25719L54.8481 7.9686L53.4914 7.35639L52.5672 7.1281L51.7871 6.88815L50.7669 6.84016L50.2864 6.86415L49.8181 7.06844L49.4102 7.18842L48.9776 7.09243L48.7734 6.74418L48.9536 6.4919L49.5302 6.45558L50.2501 6.2273L51.2105 6.02366L51.8467 6.10732L52.339 5.99902ZM70.047 60.849L68.1014 58.3275L66.4198 55.8546L65.1714 53.9104L64.6921 52.5776L64.4282 51.2929L64.1149 50.4167L63.6233 50.1891L63.1421 50.3207L62.9748 51.1612L63.3237 52.6256L64.1635 54.7508L65.2194 56.4669L66.4198 57.9799L67.7408 59.3003L68.5327 60.0565L70.047 60.849ZM43.5514 15.699L43.0831 16.3469L42.8905 17.0071L42.9748 17.4754L43.2031 17.6193L43.8633 17.4754L44.3555 17.1997L44.7038 16.8508L44.8958 16.203L44.7038 15.891L44.2836 15.5427L43.9353 15.5071L43.5514 15.699ZM56.1562 13.9577H56.6964L57.2009 13.7664L57.2366 13.2619L57.0447 12.686L56.8164 12.1458L56.3605 11.8332L55.7722 11.7249L54.9674 11.7612L54.4635 12.1814L54.2352 12.6497L54.3915 13.0699L54.9317 13.3819L55.5076 13.6938L56.1562 13.9577ZM99.4331 60.9929L99.1212 61.3049L99.1828 61.8691L99.2768 62.8776L99.3858 63.947L99.4571 64.8698L99.4098 65.9269L99.3618 67.1034L99.1452 68.1598L98.8923 69.084L98.4603 69.9848L97.8974 70.9089L97.3202 71.8104L96.708 72.6379L96.1444 73.3818L95.8325 73.946L95.6036 74.4622L95.6509 74.8468L95.9414 74.9785L96.481 74.8468L97.5362 73.8377L98.4603 72.7572L99.0738 71.8921L99.6147 70.8849L99.9727 69.9608L100.287 68.9043L100.514 67.6676L100.538 67.1034V64.8465L100.357 63.7304L100.104 62.5656L99.7937 61.5935L99.6387 61.1012L99.4331 60.9929ZM52.8305 68.2558L53.4434 68.9407L55.4596 70.693L56.5764 71.6891L57.5726 72.5906L58.3767 73.3461L58.533 73.5971L58.6413 73.778L58.3287 73.7547L57.5246 73.2495L56.1678 72.35L54.0673 70.9329L53.2151 70.3557L52.3149 69.6495L51.3305 68.748L50.61 68.1845L49.7455 67.344L49.1812 66.7564L48.833 66.2155L48.7013 65.567L48.7253 64.9671L48.953 64.7382L49.3492 64.7622L49.9737 65.1351L50.6456 65.7836L51.1385 66.3822L51.6664 66.9114L52.1826 67.5476L52.8305 68.2558ZM48.2811 41.0409L48.3051 40.7167L48.521 40.4767L49.2772 40.1648L50.8499 39.6726L52.4226 39.4799H53.3831L54.1756 39.6486L54.9194 40.0208L55.5076 40.5974L55.544 40.921L55.472 41.1493L55.2197 41.1972L54.8358 41.1493L54.2475 40.9806L53.695 40.8133L53.0108 40.7407H52.1586L51.4381 40.729L50.8019 40.7893L50.0937 40.9086L49.5295 41.0649L48.9776 41.1849L48.617 41.2089L48.3654 41.1733L48.2811 41.0409ZM68.449 68.1358L68.2201 68.772L68.1248 69.2753L67.9334 70.1891L67.8718 70.9206L68.0411 71.1255L68.3894 71.1729L68.5684 71.0283L68.652 70.645L68.9186 70.0924L69.1812 69.7922L69.4698 69.5282L69.6495 69.1086L69.6008 68.3998L69.3505 68.0282L69.2052 67.8946H68.8686L68.6183 67.9445L68.449 68.1358ZM68.9426 89.9971H68.7136L68.5327 89.4569L68.5204 88.844L68.652 88.0035L68.9523 86.8517L69.4458 86.1429L69.8901 85.5916L70.2857 85.543L70.3933 85.9029L70.154 86.6721L69.8161 87.6079L69.6495 88.0638L69.3369 88.7727L69.0976 89.6008L69.0262 89.8401L68.9426 89.9971ZM84.4152 79.4086L84.1285 79.7685L84.1758 80.345L84.6791 81.0409L84.753 81.7971L84.8704 82.0137L85.1 82.074L85.3503 81.9294L85.4243 81.5928L85.5429 81.2212L85.5922 80.8249V80.2964L85.5189 79.9008L85.2427 79.5525L85.0034 79.3366L84.7154 79.3126L84.4152 79.4086ZM62.3386 119.421L61.8464 119.912L61.6661 120.273L61.6064 120.586L61.6544 120.837L61.8107 120.957H61.9547L62.2906 120.885L62.6382 120.658L62.8542 120.333L63.0345 119.985L63.1421 119.541L63.1084 119.289L62.9748 119.181L62.7108 119.193L62.3386 119.421ZM65.9515 114.163L65.5423 114.415L65.3393 114.668L65.3153 114.883L65.4347 115.1L65.6396 115.159L65.9165 115.063L66.1429 114.931L66.3257 114.679L66.4334 114.415L66.3958 114.199L66.2518 114.115L65.9515 114.163ZM72.7235 107.427L71.0658 109.097L69.6987 110.573L68.7259 111.653L68.6767 111.954L68.7843 112.133L69.0126 112.146L69.3609 111.917L69.9854 111.353L70.7792 110.633L71.6307 109.745L72.4342 108.965L73.1424 108.136L73.6723 107.356L73.8137 107.007L73.6723 106.828L73.503 106.791L73.0335 107.092L72.7235 107.427ZM76.732 104.992L76.4914 105.243L76.4201 105.447L76.4577 105.651L76.6231 105.748H76.7684L76.985 105.507L77.2243 105.291L77.3313 105.123L77.3215 104.992L77.2003 104.931L76.9376 104.918L76.732 104.992ZM70.9206 95.8552H70.7299L70.6462 95.9635L70.6222 96.3222V96.9234L70.7416 97.5719L70.9465 98.0401L71.3784 98.7483L71.6664 99.1686L71.822 99.2393L71.907 99.2289L71.953 99.1206L71.8454 98.568L71.7377 98.2924L71.7267 98.0881L71.7144 97.5116L71.5827 96.7917L71.3901 96.2515L71.1268 95.9402L70.9206 95.8552ZM33.1068 73.9103L32.7586 73.8377L32.6146 73.874L32.5543 74.0906L32.6269 74.4622L32.8065 74.6302L33.0588 74.6775L33.2631 74.5225L33.2988 74.2826L33.2631 74.0789L33.1068 73.9103ZM26.0482 58.8684L25.9159 59.8048L25.9399 60.753L26.0839 61.5695L26.3602 62.434L26.6364 62.9859L26.8284 63.4061L26.9484 63.6337L27.104 63.766H27.1883L27.2603 63.6577L27.3206 63.3341L27.1527 62.218L27.0327 61.5332L26.7564 60.753L26.5281 60.0208L26.5165 59.4443L26.3842 58.88L26.2519 58.7601H26.1202L26.0482 58.8684ZM36.0842 57.7036L36.1439 57.5116L36.0959 57.2717L35.8079 57.0071L35.256 56.7554L34.4875 56.4195L33.8273 56.0952L33.1068 55.915L32.6866 55.7593L32.3026 55.771L32.5906 55.9869L33.4311 56.4908L34.1756 57.0434L34.9318 57.5116L35.256 57.6556L35.7236 57.7276L36.0842 57.7036ZM25.556 51.7131L25.1954 52.3377L25.1837 52.7696L25.3277 52.8896L25.5437 52.8059L25.7596 52.5056L26.0119 51.9174V51.5575L25.8439 51.4492L25.6636 51.5335L25.556 51.7131ZM59.9254 25.7227L59.5052 25.7947L58.9533 26.3232L57.8845 28.0276L56.7561 30.2125L56.1205 31.4732L55.4117 32.9376L54.5478 34.2703L54.3319 34.7749L54.3675 34.9545L54.5958 34.9668L55.304 34.6906L56.3241 33.6224L57.6685 31.7372L58.509 30.1768L59.2652 28.9277L59.8294 27.4517L60.0817 26.5269L60.1057 26.0106L59.9254 25.7227ZM39.9494 45.9386L40.1894 46.0353L40.262 46.3232L40.0817 47.3557L39.5772 48.7721L39.1329 50.1288L38.3528 51.1009L37.9565 51.4012L37.5363 51.5575L37.2963 51.3889L37.2723 51.0769L37.6089 50.717L37.9565 50.1405L38.4008 49.1683L38.6653 48.2442L38.9053 47.3317L39.3729 46.4555L39.6855 46.0113L39.9494 45.9386ZM25.6163 42.9379L25.1118 43.8141L24.8835 45.0145L24.8232 45.6513V46.1189L24.9315 46.3589L25.2434 46.2752L25.8199 45.3867L26.1436 44.3303L26.3958 43.3938L26.4082 42.7336L26.2642 42.5177L25.8803 42.626L25.6163 42.9379ZM31.9784 44.7505L32.0147 45.0145L32.158 45.1948L32.4823 45.519L32.8312 45.807L33.2385 46.0353L33.5271 46.2149L33.647 46.2032L33.7073 46.0949L33.695 45.8913L33.5387 45.663L33.2871 45.3627L32.8669 45.1105L32.6023 44.8705L32.3746 44.6669L32.1703 44.6306L32.0504 44.6182L31.9784 44.7505ZM28.3888 39.1803L27.7889 39.2523L27.5003 39.4566L27.4043 39.7802L27.4886 40.0208L27.8245 40.1525L28.3764 40.0928L28.953 39.8762L29.121 39.6006L29.1093 39.3963L28.9173 39.2166L28.7007 39.1563L28.3888 39.1803ZM58.3651 44.6422L58.7613 44.7505L58.8813 44.9665L58.9293 45.4464L58.9889 45.951L58.8696 46.3109L58.6173 46.4555L58.0051 46.4672L57.5972 46.3712L57.3683 46.0709L57.177 45.831V45.4464L57.4766 45.0625L57.9331 44.7025L58.3651 44.6422ZM47.9685 13.6698L48.521 13.2016L49.5418 12.71L50.562 12.2534L51.5341 11.7968L51.9783 11.5809L52.3149 11.5329L52.5906 11.5932L52.8065 11.9415L52.6625 12.1931L52.3869 12.2657L52.0503 12.3494L51.6781 12.6613L50.8499 13.1659L49.7098 13.4778L49.0016 13.6581L48.3168 13.7061L47.9685 13.6698ZM45.9282 15.7107L45.7479 15.9987L45.7239 16.2146L45.8802 16.3949L46.0722 16.4909L46.3122 16.4792L46.4321 16.4189L46.5164 16.1433L46.4924 15.8307L46.4321 15.6511L46.2642 15.6147H46.0722L45.9282 15.7107ZM48.2811 17.8113L48.1131 17.8236L47.9808 17.9676L47.9568 18.2076L48.0288 18.4002L48.1611 18.4715H48.3894L48.569 18.3878L48.6053 18.2076L48.545 17.9916L48.4607 17.8599L48.2811 17.8113ZM55.2917 18.8561L56.4921 18.0039L57.2243 17.5474L57.6685 17.2717H57.8248L57.8488 17.5953L57.5486 17.8353L57.4046 18.3282L57.0323 18.9041L56.3605 19.2277L55.6763 19.3846H55.0634L54.9557 19.1803L55.1114 18.9637L55.2917 18.8561ZM59.3372 19.2763L59.7335 18.7718L60.19 18.3399L60.5979 18.0642L60.8982 18.0396L61.1018 18.1719V18.5441L60.9942 18.9521L60.5376 19.3846L59.9974 19.7206L59.4455 19.8645L59.1809 19.7802L59.1452 19.5643L59.3372 19.2763ZM59.4092 21.3886L59.5655 21.113L59.9377 20.945L60.5856 20.6324L61.3301 20.1765L61.6784 19.9249L62.2063 19.6719L62.5429 19.7562V20.1168L62.4106 20.4411L61.9423 20.993L61.2945 21.3049L60.6459 21.5689L59.9734 21.5812H59.5538L59.4092 21.3886ZM58.1128 9.82856L57.7288 9.96021L57.6445 10.2248L57.8008 10.5128L58.2211 10.4888L58.5693 10.3565L58.821 10.0685L58.7133 9.82856L58.3767 9.70859L58.1128 9.82856ZM64.8834 7.63135L64.6681 7.47505L64.8238 7.18775L65.4243 7.12744L65.7486 7.2351L66.0015 7.3674L66.0119 7.58336L65.7965 7.67934L65.4606 7.70334L65.1363 7.67934L64.8834 7.63135ZM65.8666 8.99974L66.2168 8.98807L66.4814 9.04838L66.6124 9.13204L66.565 9.26434L66.3724 9.49263L66.1091 9.51597L65.7965 9.46863L65.6163 9.38432L65.4846 9.22803L65.6396 9.09573L65.8666 8.99974ZM65.7965 15.1705L66.4334 14.9065L66.9846 14.6186L67.5618 14.2943L68.0035 14.138L68.27 14.066L68.5327 13.6698L68.3414 13.4895L67.9698 13.5135L67.5242 13.6101L67.032 13.8021L66.6837 13.8261L66.6364 13.5621L66.6837 13.0576L66.4814 12.8533H66.1908L66.0015 13.0933L65.8186 13.3339L65.5319 13.6458L65.327 14.162V14.6186L65.4243 14.8702L65.4009 15.1342L65.5799 15.1945L65.7965 15.1705ZM65.5559 39.8885L65.8666 39.8645L66.1331 40.0805L66.1429 40.2608L66.0592 40.3691L65.8186 40.4404L65.5086 40.4164L65.303 40.2128L65.353 40.0331L65.5559 39.8885ZM66.0592 39.1926H66.4198L66.6604 38.928L66.6364 38.7361L66.3958 38.5798H66.1429L65.9515 38.6401L65.8666 38.8197V39.0843L66.0592 39.1926ZM66.4574 36.9234L66.72 36.8755H66.973L67.1286 37.0071L67.1636 37.2114L67.0819 37.38L66.8394 37.4993L66.589 37.5357L66.3257 37.4753L66.2408 37.2957V37.0797L66.4574 36.9234ZM66.7317 35.939L67.0923 35.9513L67.4166 35.8547L67.5476 35.651L67.4529 35.3988L67.1896 35.2671L66.8757 35.3144L66.589 35.4467L66.5287 35.6627L66.5411 35.8067L66.7317 35.939ZM67.4529 33.3941L67.8245 33.2858H68.1124L68.2441 33.4415L68.1961 33.7178L68.0171 33.9577L67.8485 34.1743L67.5138 34.2463H67.1773L66.8893 34.1023L66.8653 33.8741L67.0683 33.6581L67.2233 33.4778L67.4529 33.3941ZM67.8245 31.4972L68.1961 31.4492L68.5327 31.5212L68.6767 31.7255V31.9291L68.5204 32.1814L68.2441 32.2294L67.9561 32.302L67.5956 32.2897L67.4399 32.1094L67.4639 31.8455L67.5852 31.6652L67.8245 31.4972ZM68.1624 30.861H68.5204L68.8096 30.765L69.1812 30.6087L69.2292 30.2968L69.0976 30.0445L68.7843 29.9368L68.4607 29.9485L68.2324 30.0445L68.0281 30.1528L67.7882 30.3688L67.7408 30.597L67.8381 30.7767L68.0171 30.837L68.1624 30.861ZM21.5701 61.3412L21.8827 61.3775L21.9664 61.6895L21.7504 61.9534L21.3898 61.8691L21.2102 61.5208L21.5701 61.3412ZM67.9094 28.6281L68.4853 28.3278L68.7597 28.2675L69.0976 28.3038L69.2292 28.4238V28.5561L69.0976 28.7721L68.8686 28.964L68.5327 29.0847L68.1364 29.1197L67.8122 29.0724L67.7292 28.8797L67.7772 28.7241L67.9094 28.6281ZM68.4257 27.6676L68.8446 27.4873L69.0126 27.2954L69.0976 27.1034V26.9231L69.0262 26.8155L68.8446 26.8032L68.5943 26.8271L68.3414 26.8875L68.1248 27.0191L68.0171 27.1514L67.9795 27.3797L68.0281 27.5833L68.2201 27.6436L68.4257 27.6676ZM68.5204 26.0106L68.8809 25.879L69.1455 25.6987L69.2052 25.5431L69.2428 25.2791L69.1812 25.1105L69.0126 25.0625L68.7597 25.0748L68.4607 25.1345L68.2564 25.2791L68.1124 25.4224L68.0884 25.6624L68.1248 25.855L68.318 25.9627L68.5204 26.0106ZM68.5204 21.7252L68.8213 21.7129L69.0009 21.7732L69.0502 21.9288L68.9523 22.0851L68.7973 22.2531L68.5444 22.3134H68.2804L68.1124 22.1577V21.9775L68.27 21.8212L68.5204 21.7252ZM68.5444 24.3063L68.9186 24.126L69.2052 23.8737L69.2292 23.5021L69.2052 23.2739L69.0126 23.1656L68.7973 23.1059L68.6183 23.1176L68.5204 23.2382L68.473 23.4055L68.4257 23.6221L68.318 23.6941H68.1124L68.0534 23.8141L68.0774 24.03L68.2324 24.2227L68.3894 24.2817L68.5444 24.3063ZM68.5943 20.4288L68.857 20.2485L69.1339 20.2608L69.3005 20.4644L69.2655 20.6687L69.1339 20.8484L68.9186 20.9327L68.7136 20.9813L68.5327 21.0053L68.294 20.9813L68.2324 20.8367L68.294 20.6447L68.4367 20.5131L68.5943 20.4288ZM68.6423 19.4683L68.857 19.3846L69.0839 19.1803L69.0976 18.9877L69.0742 18.7841L68.9289 18.6998L68.702 18.7361L68.5567 18.8204L68.4017 18.9877L68.3894 19.192V19.3846L68.497 19.4443L68.6423 19.4683ZM68.1248 17.5474L68.27 17.4754L68.4607 17.4637L68.6183 17.5597L68.652 17.7036L68.5943 17.9196L68.4367 18.0396L68.294 18.1239L68.1014 18.1479L67.9458 18.0519L67.9094 17.8833L67.9795 17.74L68.1248 17.5474Z" stroke="black" stroke-width="0.140082" stroke-miterlimit="2.613"/>
<path fill-rule="evenodd" clip-rule="evenodd" d="M56.2397 77.6446L56.4563 77.1154L56.9486 76.7911L57.5128 76.6958L58.1847 76.8994L58.8572 77.2231L60.1296 78.1719L61.2587 79.0253L62.1465 79.8768L62.8541 80.7887L63.5156 81.8574L63.8645 82.9496L64.0059 83.9703L64.7523 84.4989L65.8088 85.2791L66.336 85.6993L66.589 86.5145L66.3723 87.4756L66.2044 89.3843V91.0049L66.4074 92.673L66.8756 94.6185L67.5138 96.3469L68.3179 98.0039L68.9185 99.1446L69.0598 100.057L68.5683 101.185L68.1124 102.11L67.2608 102.326L65.6635 102.254L65.0623 101.822L63.5156 101.114L61.762 100.512L59.9856 99.9851L57.5485 99.4559L56.0601 99.2393L53.8752 98.965L53.2033 99.1446L52.6385 98.965L51.534 98.8923L50.6579 98.9287L50.2979 98.8204L50.0936 98.4008L49.6617 98.1848L48.6409 98.5091L47.4405 98.784L46.0241 98.9287L44.4391 98.8923L43.3347 98.5331L42.3145 97.9682L41.426 97.3313L40.8618 97.092L39.913 95.7826L39.4091 94.9674L39.3728 94.4746L39.5531 94.2223L40.0816 94.0777L40.8262 93.7664L41.9183 93.6944H43.0227L44.2232 93.8033L45.8082 93.8384L46.8043 93.9103L47.7168 94.2223L49.3135 94.4746H49.986L50.4776 94.2586L51.4017 94.2223L52.2065 94.3669L52.9147 94.6789L53.9829 95.1471L56.0964 95.747L57.8371 96.0589L59.8177 96.3118L62.2185 96.4552L63.5876 96.3832L64.0435 96.2035L64.1511 95.7113L64.1148 95.1108L63.299 94.0186L62.3262 92.673L61.0901 90.5853L60.0576 88.7124L59.3851 87.44L58.437 85.2791L57.7288 83.5864L56.8766 80.753L56.3844 78.6044L56.2397 77.6446ZM43.491 95.0504L43.0591 95.1341L42.6869 95.2547L42.5786 95.411L42.5669 95.627L42.7589 95.8669L42.8905 95.9752L43.1791 96.0589L43.5034 96.0478L43.659 95.9992L43.851 95.7709L43.9593 95.5187L44.0073 95.315L43.971 95.1341L43.8153 95.0387L43.491 95.0504ZM55.7839 96.4194L54.7275 96.0829L54.5712 96.1432L54.5355 96.3955L54.6555 96.6231L55.4596 96.8877L56.5881 97.236L58.0168 97.5952L58.6413 97.6439L59.2892 97.6796L59.9137 97.7878L60.6219 97.9078L61.0299 97.8845L61.1622 97.7159V97.4876L61.0545 97.3436L60.6822 97.2476L60.022 97.1037L59.2055 97.044L58.3411 96.9117L57.3443 96.804L56.7444 96.7197L56.2521 96.6114L55.7839 96.4194ZM65.4723 96.7677L65.148 97.0077L65.0864 97.236L65.148 97.4396L65.3393 97.5239L65.6876 97.4396L65.9275 97.2476L66.0592 97.0077V96.8157L65.9755 96.7074H65.7109L65.4723 96.7677Z" stroke="black" stroke-width="0.140082" stroke-miterlimit="2.613"/>
<path d="M57.7172 4.97812L57.6206 3.95798L56.1679 2.19333L55.7236 2.06104L55.4117 2.50528L55.4597 3.03383L54.9674 3.47742L54.9458 3.75342L54.855 3.71472L54.8194 3.79838L54.9383 3.8491L54.9194 4.09028L55.496 4.40222L56.3001 4.97812H57.7172Z" stroke="black" stroke-width="0.140082" stroke-miterlimit="2.613"/>
<path d="M70.2228 60.849L68.2772 58.3275L66.5956 55.8546L65.3471 53.9104L64.8679 52.5776L64.6039 51.2929L64.2907 50.4167L63.7991 50.1891L63.3179 50.3207L63.1506 51.1612L63.4995 52.6256L64.3393 54.7508L65.3951 56.4669L66.5956 57.9799L67.9166 59.3003L68.7085 60.0565L70.2228 60.849ZM43.7271 15.699L43.2589 16.3469L43.0663 17.0071L43.1506 17.4754L43.3789 17.6193L44.0391 17.4754L44.5313 17.1997L44.8796 16.8508L45.0715 16.203L44.8796 15.891L44.4593 15.5427L44.1111 15.5071L43.7271 15.699ZM56.3319 13.9577H56.8722L57.3767 13.7664L57.4124 13.2619L57.2204 12.686L56.9922 12.1458L56.5362 11.8332L55.948 11.7249L55.1432 11.7612L54.6393 12.1814L54.411 12.6497L54.5673 13.0699L55.1075 13.3819L55.6834 13.6938L56.3319 13.9577ZM99.6089 60.9929L99.297 61.3049L99.3586 61.8691L99.4526 62.8776L99.5616 63.947L99.6329 64.8698L99.5856 65.9269L99.5376 67.1034L99.321 68.1598L99.068 69.084L98.6361 69.9848L98.0732 70.9089L97.496 71.8104L96.8838 72.6379L96.3202 73.3818L96.0083 73.946L95.7793 74.4622L95.8267 74.8468L96.1172 74.9785L96.6568 74.8468L97.712 73.8377L98.6361 72.7572L99.2496 71.8921L99.7905 70.8849L100.148 69.9608L100.463 68.9043L100.689 67.6676L100.713 67.1034V64.8465L100.533 63.7304L100.28 62.5656L99.9695 61.5935L99.8145 61.1012L99.6089 60.9929ZM53.0063 68.2558L53.6192 68.9407L55.6354 70.693L56.7522 71.6891L57.7483 72.5906L58.5525 73.3461L58.7088 73.5971L58.8171 73.778L58.5045 73.7547L57.7003 73.2495L56.3436 72.35L54.243 70.9329L53.3909 70.3557L52.4907 69.6495L51.5062 68.748L50.7857 68.1845L49.9212 67.344L49.357 66.7564L49.0088 66.2155L48.8771 65.567L48.9011 64.9671L49.1287 64.7382L49.525 64.7622L50.1495 65.1351L50.8214 65.7836L51.3143 66.3822L51.8422 66.9114L52.3584 67.5476L53.0063 68.2558ZM48.4569 41.0409L48.4809 40.7167L48.6968 40.4767L49.453 40.1648L51.0257 39.6726L52.5984 39.4799H53.5588L54.3513 39.6486L55.0952 40.0208L55.6834 40.5974L55.7197 40.921L55.6478 41.1493L55.3955 41.1972L55.0115 41.1493L54.4233 40.9806L53.8708 40.8133L53.1866 40.7407H52.3344L51.6139 40.729L50.9777 40.7893L50.2695 40.9086L49.7053 41.0649L49.1534 41.1849L48.7928 41.2089L48.5412 41.1733L48.4569 41.0409ZM68.6248 68.1358L68.3959 68.772L68.3005 69.2753L68.1092 70.1891L68.0476 70.9206L68.2169 71.1255L68.5651 71.1729L68.7441 71.0283L68.8278 70.645L69.0943 70.0924L69.357 69.7922L69.6456 69.5282L69.8252 69.1086L69.7766 68.3998L69.5263 68.0282L69.381 67.8946H69.0444L68.7941 67.9445L68.6248 68.1358ZM69.1183 89.9971H68.8894L68.7085 89.4569L68.6961 88.844L68.8278 88.0035L69.1281 86.8517L69.6216 86.1429L70.0658 85.5916L70.4614 85.543L70.5691 85.9029L70.3298 86.6721L69.9919 87.6079L69.8252 88.0638L69.5126 88.7727L69.2733 89.6008L69.202 89.8401L69.1183 89.9971ZM84.5909 79.4086L84.3043 79.7685L84.3516 80.345L84.8549 81.0409L84.9288 81.7971L85.0462 82.0137L85.2758 82.074L85.5261 81.9294L85.6 81.5928L85.7187 81.2212L85.768 80.8249V80.2964L85.6947 79.9008L85.4185 79.5525L85.1791 79.3366L84.8912 79.3126L84.5909 79.4086ZM62.5144 119.421L62.0221 119.912L61.8418 120.273L61.7822 120.586L61.8302 120.837L61.9865 120.957H62.1304L62.4664 120.885L62.814 120.658L63.03 120.333L63.2102 119.985L63.3179 119.541L63.2842 119.289L63.1506 119.181L62.8866 119.193L62.5144 119.421ZM66.1273 114.163L65.7181 114.415L65.5151 114.668L65.4911 114.883L65.6104 115.1L65.8154 115.159L66.0923 115.063L66.3186 114.931L66.5015 114.679L66.6092 114.415L66.5716 114.199L66.4276 114.115L66.1273 114.163ZM72.8993 107.427L71.2416 109.097L69.8745 110.573L68.9017 111.653L68.8524 111.954L68.9601 112.133L69.1884 112.146L69.5366 111.917L70.1612 111.353L70.955 110.633L71.8065 109.745L72.61 108.965L73.3182 108.136L73.8481 107.356L73.9894 107.007L73.8481 106.828L73.6788 106.791L73.2093 107.092L72.8993 107.427ZM76.9078 104.992L76.6672 105.243L76.5959 105.447L76.6335 105.651L76.7989 105.748H76.9441L77.1607 105.507L77.4 105.291L77.5071 105.123L77.4973 104.992L77.3761 104.931L77.1134 104.918L76.9078 104.992ZM71.0964 95.8552H70.9057L70.822 95.9635L70.798 96.3222V96.9234L70.9174 97.5719L71.1223 98.0401L71.5542 98.7483L71.8422 99.1686L71.9978 99.2393L72.0828 99.2289L72.1288 99.1206L72.0211 98.568L71.9135 98.2924L71.9025 98.0881L71.8901 97.5116L71.7585 96.7917L71.5659 96.2515L71.3026 95.9402L71.0964 95.8552ZM43.6668 95.0504L43.2349 95.1341L42.8627 95.2547L42.7544 95.411L42.7427 95.6269L42.9346 95.8669L43.0663 95.9752L43.3549 96.0589L43.6792 96.0478L43.8348 95.9992L44.0268 95.7709L44.1351 95.5187L44.1831 95.315L44.1467 95.1341L43.9911 95.0387L43.6668 95.0504ZM55.9597 96.4195L54.9032 96.0829L54.7469 96.1432L54.7113 96.3955L54.8313 96.6231L55.6354 96.8877L56.7639 97.236L58.1926 97.5952L58.8171 97.6439L59.465 97.6795L60.0895 97.7878L60.7977 97.9078L61.2056 97.8845L61.3379 97.7159V97.4876L61.2303 97.3436L60.858 97.2476L60.1978 97.1037L59.3813 97.044L58.5168 96.9117L57.52 96.804L56.9202 96.7197L56.4279 96.6114L55.9597 96.4195ZM65.6481 96.7677L65.3238 97.0077L65.2622 97.236L65.3238 97.4396L65.5151 97.5239L65.8634 97.4396L66.1033 97.2476L66.235 97.0077V96.8157L66.1513 96.7074H65.8867L65.6481 96.7677ZM33.2826 73.9103L32.9343 73.8377L32.7904 73.874L32.73 74.0906L32.8027 74.4622L32.9823 74.6302L33.2346 74.6775L33.4389 74.5225L33.4746 74.2826L33.4389 74.0789L33.2826 73.9103ZM26.224 58.8684L26.0917 59.8048L26.1157 60.753L26.2597 61.5695L26.536 62.434L26.8122 62.9859L27.0042 63.4061L27.1242 63.6337L27.2798 63.766H27.3641L27.4361 63.6577L27.4964 63.3341L27.3285 62.218L27.2085 61.5332L26.9322 60.753L26.7039 60.0208L26.6922 59.4443L26.5599 58.88L26.4276 58.7601H26.296L26.224 58.8684ZM36.26 57.7036L36.3197 57.5116L36.2717 57.2717L35.9837 57.0071L35.4318 56.7554L34.6633 56.4195L34.0031 56.0952L33.2826 55.915L32.8623 55.7593L32.4784 55.771L32.7664 55.9869L33.6069 56.4909L34.3514 57.0434L35.1076 57.5116L35.4318 57.6556L35.8994 57.7276L36.26 57.7036ZM25.7318 51.7131L25.3712 52.3377L25.3595 52.7696L25.5035 52.8896L25.7195 52.8059L25.9354 52.5056L26.0794 52.1697L26.1877 51.9174V51.5575L26.0197 51.4492L25.8394 51.5335L25.7318 51.7131ZM60.1012 25.7227L59.6809 25.7947L59.1291 26.3232L58.0603 28.0276L56.9318 30.2125L56.2963 31.4732L55.5874 32.9376L54.7236 34.2703L54.5076 34.7749L54.5433 34.9545L54.7716 34.9668L55.4798 34.6906L56.4999 33.6224L57.8443 31.7372L58.6848 30.1768L59.441 28.9277L60.0052 27.4517L60.2575 26.5269L60.2815 26.0106L60.1012 25.7227ZM40.1252 45.9386L40.3652 46.0353L40.4378 46.3232L40.2575 47.3557L39.753 48.7721L39.3087 50.1288L38.5285 51.1009L38.1323 51.4012L37.712 51.5575L37.4721 51.3889L37.4481 51.0769L37.7847 50.717L38.1323 50.1405L38.5765 49.1683L38.8411 48.2442L39.0811 47.3317L39.5487 46.4555L39.8613 46.0113L40.1252 45.9386ZM25.7921 42.9379L25.2875 43.8141L25.0593 45.0145L24.9989 45.6513V46.1189L25.1072 46.3589L25.4192 46.2752L25.9957 45.3867L26.3193 44.3303L26.5716 43.3938L26.5839 42.7336L26.44 42.5176L26.056 42.626L25.7921 42.9379ZM32.1542 44.7505L32.1905 45.0145L32.3338 45.1948L32.6581 45.519L33.007 45.807L33.4142 46.0353L33.7028 46.2149L33.8228 46.2032L33.8831 46.0949L33.8708 45.8913L33.7145 45.663L33.4629 45.3627L33.0426 45.1105L32.778 44.8705L32.5504 44.6669L32.3461 44.6306L32.2261 44.6182L32.1542 44.7505ZM28.5645 39.1803L27.9647 39.2523L27.6761 39.4566L27.5801 39.7802L27.6644 40.0208L28.0003 40.1525L28.5522 40.0928L29.1288 39.8762L29.2967 39.6006L29.2851 39.3963L29.0931 39.2166L28.8765 39.1563L28.5645 39.1803ZM58.5408 44.6422L58.9371 44.7505L59.0571 44.9665L59.1051 45.4464L59.1647 45.951L59.0454 46.3109L58.7931 46.4555L58.1809 46.4672L57.773 46.3712L57.544 46.0709L57.3527 45.831V45.4464L57.6524 45.0625L58.1089 44.7025L58.5408 44.6422ZM48.1443 13.6698L48.6968 13.2016L49.7176 12.71L50.7377 12.2534L51.7099 11.7968L52.1541 11.5809L52.4907 11.5329L52.7663 11.5932L52.9823 11.9415L52.8383 12.1931L52.5627 12.2657L52.2261 12.3494L51.8539 12.6613L51.0257 13.1659L49.8856 13.4778L49.1774 13.6581L48.4925 13.7061L48.1443 13.6698ZM46.104 15.7107L45.9237 15.9987L45.8997 16.2146L46.056 16.3949L46.248 16.4909L46.4879 16.4792L46.6079 16.4189L46.6922 16.1433L46.6682 15.8307L46.6079 15.6511L46.4399 15.6147H46.248L46.104 15.7107ZM48.4569 17.8113L48.2889 17.8236L48.1566 17.9676L48.1326 18.2076L48.2046 18.4002L48.3369 18.4715H48.5652L48.7448 18.3878L48.7811 18.2076L48.7208 17.9916L48.6365 17.8599L48.4569 17.8113ZM55.4675 18.8561L56.6679 18.0039L57.4001 17.5474L57.8443 17.2717H58.0006L58.0246 17.5953L57.7243 17.8353L57.5804 18.3282L57.2081 18.9041L56.5362 19.2277L55.852 19.3846H55.2392L55.1315 19.1803L55.2872 18.9637L55.4675 18.8561ZM59.513 19.2763L59.9092 18.7718L60.3658 18.3399L60.7737 18.0642L61.074 18.0396L61.2776 18.1719V18.5441L61.17 18.9521L60.7134 19.3846L60.1732 19.7206L59.6213 19.8645L59.3567 19.7802L59.321 19.5643L59.513 19.2763ZM59.585 21.3886L59.7413 21.113L60.1135 20.945L60.7614 20.6324L61.5059 20.1765L61.8542 19.9249L62.3821 19.6719L62.7187 19.7562V20.1168L62.5864 20.4411L62.1181 20.993L61.4702 21.3049L60.8217 21.5689L60.1492 21.5812H59.7296L59.585 21.3886ZM58.2886 9.82856L57.9046 9.96021L57.8203 10.2248L57.9766 10.5128L58.3969 10.4888L58.7451 10.3565L58.9967 10.0685L58.8891 9.82856L58.5525 9.70859L58.2886 9.82856ZM65.0592 7.63135L64.8439 7.47505L64.9995 7.18775L65.6001 7.12744L65.9243 7.2351L66.1773 7.3674L66.1876 7.58336L65.9723 7.67934L65.6364 7.70334L65.3121 7.67934L65.0592 7.63135ZM66.0424 8.99974L66.3926 8.98807L66.6572 9.04838L66.7882 9.13204L66.7408 9.26434L66.5482 9.49263L66.2849 9.51597L65.9723 9.46863L65.792 9.38432L65.6604 9.22803L65.8154 9.09573L66.0424 8.99974ZM65.9723 15.1705L66.6092 14.9065L67.1604 14.6186L67.7376 14.2943L68.1793 14.138L68.4458 14.066L68.7085 13.6698L68.5171 13.4895L68.1455 13.5135L67.7 13.6101L67.2078 13.8021L66.8595 13.8261L66.8122 13.5621L66.8595 13.0576L66.6572 12.8533H66.3666L66.1773 13.0933L65.9944 13.3339L65.7077 13.6458L65.5028 14.162V14.6186L65.6001 14.8702L65.5767 15.1342L65.7557 15.1945L65.9723 15.1705ZM65.7317 39.8885L66.0424 39.8645L66.3089 40.0805L66.3186 40.2608L66.235 40.3691L65.9944 40.4404L65.6844 40.4164L65.4788 40.2128L65.5287 40.0331L65.7317 39.8885ZM66.235 39.1926H66.5956L66.8362 38.928L66.8122 38.7361L66.5716 38.5798H66.3186L66.1273 38.6401L66.0424 38.8197V39.0843L66.235 39.1926ZM66.6332 36.9234L66.8958 36.8755H67.1488L67.3044 37.0071L67.3394 37.2114L67.2577 37.38L67.0152 37.4993L66.7648 37.5357L66.5015 37.4753L66.4166 37.2957V37.0797L66.6332 36.9234ZM66.9075 35.939L67.2681 35.9513L67.5924 35.8547L67.7234 35.651L67.6287 35.3988L67.3654 35.2671L67.0515 35.3144L66.7648 35.4467L66.7045 35.6627L66.7168 35.8067L66.9075 35.939ZM67.6287 33.3941L68.0003 33.2858H68.2882L68.4199 33.4415L68.3719 33.7178L68.1929 33.9577L68.0243 34.1743L67.6896 34.2463H67.353L67.0651 34.1023L67.0411 33.8741L67.2441 33.6581L67.3991 33.4778L67.6287 33.3941ZM68.0003 31.4972L68.3719 31.4492L68.7085 31.5212L68.8524 31.7255V31.9291L68.6961 32.1814L68.4199 32.2294L68.1319 32.302L67.7713 32.2897L67.6157 32.1094L67.6397 31.8455L67.761 31.6652L68.0003 31.4972ZM68.3382 30.861H68.6961L68.9854 30.765L69.357 30.6087L69.405 30.2968L69.2733 30.0445L68.9601 29.9368L68.6365 29.9485L68.4082 30.0445L68.2039 30.1528L67.964 30.3688L67.9166 30.597L68.0139 30.7767L68.1929 30.837L68.3382 30.861ZM21.7459 61.3412L22.0585 61.3775L22.1422 61.6895L21.9262 61.9534L21.5656 61.8691L21.386 61.5208L21.7459 61.3412ZM68.0852 28.6281L68.6611 28.3278L68.9355 28.2675L69.2733 28.3038L69.405 28.4238V28.5561L69.2733 28.7721L69.0444 28.964L68.7085 29.0847L68.3122 29.1197L67.988 29.0724L67.9049 28.8797L67.9529 28.7241L68.0852 28.6281ZM68.6015 27.6676L69.0204 27.4873L69.1884 27.2954L69.2733 27.1034V26.9231L69.202 26.8155L69.0204 26.8032L68.7701 26.8271L68.5171 26.8875L68.3005 27.0191L68.1929 27.1514L68.1553 27.3797L68.2039 27.5833L68.3959 27.6436L68.6015 27.6676ZM68.6961 26.0106L69.0567 25.879L69.3213 25.6987L69.381 25.5431L69.4186 25.2791L69.357 25.1105L69.1884 25.0625L68.9355 25.0748L68.6365 25.1345L68.4322 25.2791L68.2882 25.4224L68.2642 25.6624L68.3005 25.855L68.4938 25.9627L68.6961 26.0106ZM68.6961 21.7252L68.9971 21.7129L69.1767 21.7732L69.226 21.9288L69.1281 22.0851L68.9731 22.2531L68.7201 22.3134H68.4562L68.2882 22.1577V21.9775L68.4458 21.8212L68.6961 21.7252ZM68.7201 24.3063L69.0943 24.126L69.381 23.8737L69.405 23.5021L69.381 23.2739L69.1884 23.1656L68.9731 23.1059L68.7941 23.1176L68.6961 23.2382L68.6488 23.4055L68.6015 23.6221L68.4938 23.6941H68.2882L68.2292 23.8141L68.2532 24.03L68.4082 24.2227L68.5651 24.2817L68.7201 24.3063ZM68.7701 20.4288L69.0327 20.2485L69.3097 20.2608L69.4763 20.4644L69.4413 20.6687L69.3097 20.8484L69.0943 20.9327L68.8894 20.9813L68.7085 21.0053L68.4698 20.9813L68.4082 20.8367L68.4698 20.6447L68.6125 20.5131L68.7701 20.4288ZM68.8181 19.4683L69.0327 19.3846L69.2597 19.1803L69.2733 18.9877L69.25 18.7841L69.1047 18.6998L68.8777 18.7361L68.7325 18.8204L68.5775 18.9877L68.5651 19.192V19.3846L68.6728 19.4443L68.8181 19.4683ZM68.3005 17.5474L68.4458 17.4754L68.6365 17.4637L68.7941 17.5597L68.8278 17.7036L68.7701 17.9196L68.6125 18.0396L68.4698 18.1239L68.2772 18.1479L68.1215 18.0519L68.0852 17.8833L68.1553 17.74L68.3005 17.5474Z" fill="white" stroke="black" stroke-width="0.140082" stroke-miterlimit="2.613"/>
</svg>
